<?xml version="1.0" standalone="no"?>
<!DOCTYPE svg PUBLIC "-//W3C//DTD SVG 20010904//EN"
 "http://www.w3.org/TR/2001/REC-SVG-20010904/DTD/svg10.dtd">
<svg version="1.0" xmlns="http://www.w3.org/2000/svg"
 width="1200.000000pt" height="1200.000000pt" viewBox="0 0 1200.000000 1200.000000"
 preserveAspectRatio="xMidYMid meet">

<g transform="translate(0.000000,1200.000000) scale(0.100000,-0.100000)"
fill="#000000" stroke="none">
<path d="M2020 5995 l0 -4255 3985 0 3985 0 0 4255 0 4255 -3985 0 -3985 0 0
-4255z m7740 0 l0 -4035 -3760 0 -3760 0 0 4035 0 4035 3760 0 3760 0 0 -4035z"/>
<path d="M3830 8286 c0 -71 -3 -68 75 -81 125 -21 266 -149 347 -317 20 -40
183 -453 363 -918 180 -465 546 -1407 812 -2095 267 -687 492 -1269 501 -1292
l16 -43 56 0 55 0 164 423 c90 232 442 1142 782 2022 639 1650 668 1725 727
1835 105 193 258 339 400 381 l42 12 0 69 0 68 -42 -7 c-56 -10 -992 -10
-1130 0 l-108 8 0 -65 0 -65 33 -5 c17 -3 65 -8 106 -11 88 -8 205 -36 258
-64 71 -36 140 -107 165 -169 19 -48 22 -76 22 -172 0 -123 -21 -229 -84 -416
-58 -171 -1145 -2983 -1151 -2976 -9 11 -1229 3257 -1261 3357 -94 288 -18
402 287 436 50 6 105 12 123 15 l32 5 0 65 0 64 -57 -7 c-75 -10 -1366 -10
-1460 0 l-73 7 0 -64z"/>
</g>
</svg>
