<svg xmlns="http://www.w3.org/2000/svg" xmlns:xlink="http://www.w3.org/1999/xlink" width="500" zoomAndPan="magnify" viewBox="0 0 375 374.999991" height="500" preserveAspectRatio="xMidYMid meet" version="1.0"><defs><clipPath id="id1"><path d="M 63.179688 44.550781 L 312 44.550781 L 312 330 L 63.179688 330 Z M 63.179688 44.550781 " clip-rule="nonzero"/></clipPath></defs><path fill="rgb(96.859741%, 43.139648%, 6.669617%)" d="M 187.5 0 C 83.945312 0 0 83.945312 0 187.5 C 0 291.054688 83.945312 375 187.5 375 C 291.054688 375 375 291.054688 375 187.5 C 375 83.945312 291.054688 0 187.5 0 " fill-opacity="1" fill-rule="nonzero"/><g clip-path="url(#id1)"><path fill="rgb(0%, 0%, 0%)" d="M 107.191406 329.53125 C 107.027344 329.269531 107.4375 327.738281 108.097656 326.132812 C 110.441406 320.425781 113.496094 306.953125 114.578125 297.542969 C 115.246094 291.730469 114.839844 280.796875 113.765625 275.632812 C 111.433594 264.445312 105.953125 254.214844 100.898438 251.625 C 97.820312 250.046875 95.988281 249.96875 92.746094 251.269531 C 87.535156 253.367188 85.332031 255.058594 78.671875 262.082031 C 71.683594 269.453125 68.386719 275.410156 66.09375 284.808594 C 64.75 290.304688 64.320312 291.371094 63.695312 290.738281 C 63.175781 290.214844 63.742188 287 65.457031 280.765625 C 67.171875 274.527344 69.164062 269.320312 72.882812 261.359375 C 75.84375 255.023438 77.570312 250.65625 81.601562 239.328125 C 84.066406 232.402344 93.53125 214.214844 101.058594 201.941406 L 103.285156 198.308594 L 99.027344 196.0625 C 91.058594 191.863281 85.179688 187.359375 78.316406 180.191406 C 75.863281 177.632812 72.730469 174.105469 71.355469 172.359375 C 68.644531 168.921875 65.984375 163.695312 65.550781 160.960938 C 65.234375 158.964844 64.984375 159.242188 70.671875 155.394531 C 78.898438 149.832031 89.554688 145.746094 101.722656 143.484375 C 113.496094 141.296875 121.445312 138.054688 135.289062 129.800781 C 141.679688 125.988281 145.898438 122.71875 148.988281 119.183594 C 151.601562 116.195312 160.875 107.945312 165.890625 104.140625 C 171.910156 99.582031 180.234375 95.222656 187.507812 92.820312 C 189.292969 92.230469 195.214844 91.046875 200.898438 90.140625 C 211.550781 88.441406 215.148438 87.597656 220 85.652344 C 224.855469 83.707031 227.328125 82.28125 231.304688 79.136719 C 238.859375 73.167969 252.972656 63.03125 255.664062 61.648438 C 258.390625 60.246094 265.113281 55.355469 269.054688 51.90625 C 271.542969 49.730469 274.132812 47.882812 275.914062 47.015625 C 279.15625 45.4375 283.632812 44.570312 285.269531 45.203125 C 287.1875 45.945312 290.441406 53.910156 290.441406 57.867188 C 290.441406 59.179688 290.738281 59.65625 292.699219 61.523438 C 295.316406 64.007812 296.21875 65.808594 296.878906 69.859375 C 297.242188 72.089844 297.246094 73.5625 296.894531 76.121094 C 295.902344 83.273438 292.128906 96.25 288.222656 105.914062 C 286.214844 110.886719 285.558594 115.078125 286.328125 118.042969 C 286.832031 120 287.789062 120.042969 289.347656 118.183594 C 292.597656 114.304688 297.328125 109.652344 300.433594 107.273438 L 303.832031 104.671875 L 306.128906 107.121094 C 309.910156 111.152344 311.46875 115.332031 311.90625 122.578125 C 312.171875 127.035156 311.625 131.273438 310.25 135.355469 C 308.292969 141.179688 305.6875 145.488281 296.058594 158.816406 C 283.269531 176.519531 281.371094 179.59375 277.699219 188.519531 C 271.324219 204.007812 269 219.199219 270.175781 237.710938 C 270.375 240.902344 270.355469 242.542969 270.117188 242.160156 C 268.894531 240.191406 267.851562 226.96875 268.253906 218.507812 C 268.398438 215.394531 268.863281 210.066406 269.285156 206.667969 C 270.253906 198.863281 270.257812 196.648438 269.308594 194.851562 C 268.421875 193.175781 267.136719 192.621094 265.019531 193.007812 C 263.738281 193.238281 262.8125 193.957031 259.859375 197.019531 C 254.304688 202.78125 249.726562 211.53125 249.671875 216.488281 C 249.65625 217.894531 249.402344 218.816406 248.835938 219.519531 L 248.023438 220.53125 L 248.28125 218.304688 C 249.066406 211.507812 251.328125 204.449219 254.128906 200.054688 C 259.679688 191.335938 265.941406 185.105469 277.007812 177.277344 C 283.648438 172.578125 289.902344 165.167969 293.753906 157.429688 C 299.457031 145.964844 300.984375 131.28125 297.085938 125.328125 C 295.898438 123.511719 293.5625 121.953125 292.089844 121.996094 C 289.585938 122.066406 286.316406 123.832031 281.507812 127.707031 C 278.835938 129.859375 272.464844 134.945312 267.351562 139.003906 C 262.234375 143.066406 257.765625 146.828125 257.414062 147.367188 C 257.066406 147.90625 256.097656 150.125 255.261719 152.296875 C 253.820312 156.035156 253.722656 156.183594 253.402344 155.035156 C 252.820312 152.953125 253.148438 145.941406 254.03125 141.617188 C 255.683594 133.492188 259.007812 125.847656 263.15625 120.625 C 270.144531 111.824219 274.046875 105.519531 275.515625 100.660156 C 277.113281 95.378906 279.03125 90.503906 282.058594 84.054688 C 287.734375 71.960938 287.882812 64.109375 282.480469 61.589844 C 280.707031 60.761719 280.605469 60.507812 281.445312 59.019531 C 282.449219 57.238281 282.046875 54.183594 280.6875 53.261719 C 279.875 52.714844 278.453125 52.945312 277.648438 53.761719 C 276.5 54.921875 276.644531 56.445312 278.03125 57.847656 C 278.738281 58.5625 279.117188 59.289062 278.980469 59.65625 C 278.851562 59.996094 277.464844 60.929688 275.898438 61.738281 C 271.109375 64.199219 267.632812 63.691406 267.03125 60.441406 C 266.886719 59.664062 267.035156 58.558594 267.402344 57.664062 C 267.992188 56.242188 267.984375 56.195312 267.269531 56.585938 C 266.167969 57.179688 264.183594 59.742188 263.226562 61.800781 C 262.769531 62.789062 261.796875 66.703125 261.066406 70.503906 C 259.195312 80.21875 258.984375 80.960938 256.796875 85.550781 C 254.554688 90.257812 251.460938 95.078125 247.859375 99.484375 C 244.363281 103.757812 241.898438 107.492188 239.894531 111.546875 C 236.535156 118.332031 235.300781 123.363281 235.285156 130.296875 C 235.273438 134.273438 234.851562 134.566406 233.871094 131.265625 C 232.914062 128.039062 232.683594 122.003906 233.398438 118.648438 C 234.21875 114.78125 238.363281 103.125 241.917969 94.703125 C 245.378906 86.492188 245.824219 84.902344 245.585938 81.597656 C 245.425781 79.359375 245.265625 78.980469 243.945312 77.757812 C 242.082031 76.03125 240.738281 76.011719 237.523438 77.65625 C 232.53125 80.21875 227.601562 84.863281 225.34375 89.136719 C 224.636719 90.472656 223.710938 92.019531 223.28125 92.574219 L 222.503906 93.585938 L 222.492188 91.308594 C 222.480469 88.242188 222.164062 88.035156 218.277344 88.53125 C 214.046875 89.074219 210.472656 89.996094 206.984375 91.449219 C 204.371094 92.535156 203.898438 92.914062 202.289062 95.191406 C 201.304688 96.589844 200.5 98.101562 200.5 98.558594 C 200.5 99.011719 200.976562 99.960938 201.5625 100.664062 C 203.027344 102.425781 202.367188 102.773438 198.300781 102.382812 C 192.839844 101.855469 191.734375 102.003906 188.589844 103.675781 C 185.164062 105.496094 183.417969 107.34375 181.523438 111.144531 C 179.347656 115.511719 178.363281 119.589844 178.363281 124.214844 C 178.363281 126.382812 178.214844 128.011719 178.035156 127.832031 C 177.859375 127.648438 177.003906 124.648438 176.136719 121.164062 C 175.269531 117.679688 174.257812 114.179688 173.886719 113.386719 C 173.109375 111.730469 169.566406 108.429688 168.183594 108.070312 C 166.75 107.703125 164.617188 108.523438 161.3125 110.714844 C 157.683594 113.128906 154.609375 116.246094 149.511719 122.691406 C 143.046875 130.867188 140.496094 137.324219 140.40625 145.738281 C 140.351562 150.851562 140.851562 153.316406 142.847656 157.773438 C 143.621094 159.5 144.144531 161.023438 144.011719 161.15625 C 143.503906 161.671875 142.53125 160.855469 140.636719 158.324219 C 135.554688 151.535156 131.550781 148.417969 125.148438 146.269531 C 122.667969 145.4375 121.601562 145.332031 115.753906 145.34375 C 108.367188 145.351562 103.316406 146.15625 96.542969 148.394531 C 87.621094 151.339844 82.148438 155.304688 79.546875 160.695312 C 78.503906 162.859375 78.378906 163.539062 78.378906 166.960938 C 78.378906 170.46875 78.492188 171.046875 79.699219 173.632812 C 82.929688 180.542969 91.121094 188.835938 98.363281 192.53125 C 100.617188 193.679688 105.929688 195.4375 108.398438 195.847656 C 111.433594 196.355469 115.941406 194.160156 119.6875 190.355469 L 121.421875 188.589844 L 121.269531 184.925781 C 121.144531 181.898438 120.925781 180.867188 119.996094 179.011719 C 118.28125 175.589844 115.683594 172.496094 112.726562 170.363281 C 110.371094 168.664062 109.742188 168.40625 107.441406 168.203125 C 104.097656 167.90625 104.679688 167.28125 109.175781 166.335938 C 112.984375 165.53125 116.472656 165.722656 119.039062 166.871094 C 121.765625 168.089844 127.023438 171.738281 131.75 175.699219 C 136.386719 179.574219 139.171875 181.09375 143.898438 182.316406 C 149.753906 183.828125 153.742188 183.234375 153.171875 180.929688 C 153.050781 180.449219 152.835938 178.066406 152.691406 175.632812 C 151.984375 163.671875 155.75 149.636719 161.316406 143.488281 L 163.308594 141.289062 L 162.339844 143.574219 C 156.507812 157.316406 156.269531 172.851562 161.714844 184.617188 C 164.597656 190.855469 166.480469 192.835938 169.515625 192.835938 C 172.921875 192.835938 175.300781 190.363281 177.015625 185.039062 C 177.746094 182.78125 177.835938 181.339844 177.910156 170.800781 C 178.042969 152.253906 178.925781 147.027344 184.292969 133.046875 C 186.15625 128.183594 188.5 121.988281 189.496094 119.28125 C 191.585938 113.597656 192.195312 112.316406 193.730469 110.339844 C 195.097656 108.582031 195.765625 108.234375 204.296875 104.878906 C 208.046875 103.40625 211.769531 101.667969 212.609375 100.996094 C 213.929688 99.9375 215.957031 99.042969 217.023438 99.042969 C 217.210938 99.042969 215.773438 100.289062 213.828125 101.8125 C 209.800781 104.964844 208.035156 106.683594 206.605469 108.828125 C 205.835938 109.988281 205.140625 110.46875 203.554688 110.945312 C 196.71875 112.996094 191.957031 118.226562 188.996094 126.9375 C 185.929688 135.964844 183.414062 149.667969 183.871094 154.886719 C 184.382812 160.738281 186.773438 165.464844 190.402344 167.792969 C 192.738281 169.289062 194.113281 169.292969 196.230469 167.8125 C 198.394531 166.296875 203.570312 160.859375 205.3125 158.269531 C 207.902344 154.417969 214.917969 141.28125 215.550781 139.09375 C 216.015625 137.488281 216.136719 135.839844 216 132.972656 C 215.78125 128.371094 215.085938 126.800781 212.664062 125.445312 C 210.984375 124.5 206.292969 123.566406 204.796875 123.871094 C 204.300781 123.972656 203.105469 124.164062 202.136719 124.296875 C 200.617188 124.507812 200.445312 124.460938 200.863281 123.945312 C 201.132812 123.621094 203.003906 122.535156 205.023438 121.53125 C 212.605469 117.773438 215.707031 113.503906 220.933594 99.648438 L 222.460938 95.605469 L 222.472656 97.714844 C 222.480469 98.886719 222.132812 100.71875 221.695312 101.847656 C 221.257812 102.960938 220.523438 105.742188 220.054688 108.027344 C 219.300781 111.726562 219.242188 112.867188 219.515625 118.449219 C 220.078125 129.816406 219.933594 139.292969 219.136719 143.046875 C 217.179688 152.253906 213.589844 159.578125 206.925781 167.972656 C 200.574219 175.96875 194.289062 186.535156 191.957031 193.144531 C 189.078125 201.292969 188.277344 211.773438 190.046875 218.105469 C 191.269531 222.464844 194.339844 228.730469 199.644531 237.679688 C 204.410156 245.714844 206.023438 249.171875 208.808594 257.320312 C 210.492188 262.246094 210.617188 262.890625 210.761719 267.628906 C 210.867188 271.046875 210.738281 273.402344 210.371094 274.90625 L 209.820312 277.128906 L 209.585938 275.3125 C 209.453125 274.308594 209.148438 271.527344 208.902344 269.125 C 208.101562 261.277344 205.753906 254.863281 201.089844 247.777344 C 197.574219 242.4375 193.320312 237.980469 187.117188 233.140625 C 174.472656 223.277344 164.121094 210.394531 157.496094 196.273438 C 155.199219 191.378906 154.535156 189.332031 154.53125 187.136719 C 154.53125 186.238281 154.246094 185.425781 153.789062 185.007812 C 153.085938 184.363281 152.859375 184.449219 149.492188 186.601562 C 145.109375 189.398438 136.027344 193.898438 130.945312 195.789062 C 128.855469 196.5625 124.988281 197.703125 122.351562 198.320312 C 118.25 199.277344 116.644531 199.445312 111.277344 199.46875 C 104.046875 199.507812 104.902344 198.875 104.132812 204.761719 C 103.5625 209.113281 103.84375 216.46875 104.742188 220.734375 C 105.785156 225.703125 106.867188 228.632812 110.558594 236.5 C 117.003906 250.230469 120.964844 260.605469 122.367188 267.425781 C 123.359375 272.25 123.554688 280.710938 122.796875 285.734375 C 120.835938 298.675781 117.007812 311 111.152344 323.21875 C 108.292969 329.179688 107.625 330.246094 107.1875 329.535156 Z M 231.976562 252.554688 C 230.390625 250.109375 227.832031 244.339844 226.476562 240.148438 C 222.695312 228.460938 220.832031 211.847656 222.117188 201.253906 C 222.746094 196.039062 223.195312 194.816406 223.199219 198.292969 C 223.203125 200.957031 224.15625 204.558594 224.859375 204.558594 C 225.53125 204.558594 226.894531 202.503906 228.40625 199.207031 C 230.40625 194.851562 233.597656 189.898438 236.816406 186.164062 C 242.53125 179.539062 245.316406 175.859375 246.605469 173.214844 C 247.363281 171.664062 248.371094 170.042969 248.847656 169.609375 L 249.710938 168.820312 L 249.316406 169.867188 C 248.363281 172.402344 245.554688 177.589844 243.4375 180.730469 C 242.171875 182.609375 240.011719 185.816406 238.636719 187.863281 C 230.488281 199.976562 226.296875 217.867188 228.09375 232.871094 C 228.601562 237.128906 230.167969 243.632812 231.507812 247.050781 C 233.242188 251.476562 233.539062 254.96875 231.972656 252.554688 Z M 231.976562 252.554688 " fill-opacity="1" fill-rule="nonzero"/></g></svg>